# xmcd CD database file
#
# Track frame offsets:
#	150
#	24606
#	51442
#	79770
#	105566
#	120884
#	151255
#	163108
#	176307
#	194177
#	213982
#	240238
#	270565
#	281908
#	296387
#
# Disc length: 4246 seconds
#
# Revision: 0
# Processed by: cddbd v1.5.2PL0 Copyright (c) Steve Scherf et al.
# Submitted via: CDex 1.70beta2
#
DISCID=cd10940f
DTITLE=Various Artist - A Grat Collection of Jazz
DYEAR=2000
DGENRE=Jazz
TTITLE0=TAKE FIVE
TTITLE1=MORNING
TTITLE2=TAKE ME THERE
TTITLE3=ANGELA
TTITLE4=C JAM BLUES
TTITLE5=SUMMERTIME
TTITLE6=EL HOMBRE DEL BRAZO DE ORO
TTITLE7=BLUESSETTE LIVE
TTITLE8=Insensatéz
TTITLE9=DA TODO LO QUE TIENES
TTITLE10=Pájaros Nocturnos
TTITLE11=BLUE RONDO ALLA TURK
TTITLE12=PETER GUN
TTITLE13=DRAGNET
TTITLE14=BRASIL
EXTD=YEAR: 2000
EXTT0=
EXTT1=
EXTT2=
EXTT3=
EXTT4=
EXTT5=
EXTT6=
EXTT7=
EXTT8=
EXTT9=
EXTT10=
EXTT11=
EXTT12=
EXTT13=
EXTT14=
PLAYORDER=
